<?xml version="1.0" encoding="utf-8"?>
<svg xmlns="http://www.w3.org/2000/svg" viewBox="403.4418 239.6294 633.1163 280.7412" width="633.116px" height="280.741px">
  <g transform="matrix(1, 0, 0, 1, -0.0019230000907555223, 0.0003810000198427588)">
    <path d="M 432.479 295.325 C 479.575 234.167 567.332 222.767 628.489 269.863 C 640.882 279.406 651.232 290.619 659.465 302.941 L 613.605 362.495 C 609.717 347.332 600.922 333.307 587.558 323.016 C 555.756 298.526 510.122 304.454 485.633 336.256 C 461.143 368.058 467.071 413.692 498.873 438.182 C 530.675 462.671 576.308 456.743 600.798 424.941 L 742.628 240.762 L 795.782 281.693 L 653.951 465.873 C 606.856 527.031 519.099 538.43 457.941 491.335 C 396.783 444.239 385.384 356.483 432.479 295.325 Z" id="CompoundPath-1" stroke-opacity="0" fill-rule="nonzero" stroke="none" stroke-width="1" stroke-linecap="none" stroke-linejoin="none" stroke-miterlimit="10" font-family="none" font-weight="none" font-size="none" style="stroke-width: 1; fill: rgb(4, 180, 224);"/>
    <path d="M 680.139 477.682 L 862.953 240.279 L 916.107 281.209 L 733.292 518.614 L 680.139 477.682 Z M 799.544 478.394 L 983.409 239.629 L 1036.56 280.559 L 852.698 519.325 L 799.544 478.394 Z M 939.986 499.598 L 940.501 450.932 L 1008.53 362.239 L 1007.07 500.308 L 939.986 499.598 Z" id="path-1" stroke-opacity="0" fill-rule="nonzero" stroke="none" stroke-width="1" stroke-linecap="none" stroke-linejoin="none" stroke-miterlimit="10" font-family="none" font-weight="none" font-size="none" style="stroke-width: 1; fill: rgb(118, 135, 139);"/>
  </g>
</svg>
